<mxfile host="app.diagrams.net" modified="2023-11-11T17:15:27.675Z" agent="Mozilla/5.0 (Macintosh; Intel Mac OS X 10_15_7) AppleWebKit/537.36 (KHTML, like Gecko) Chrome/119.0.0.0 Safari/537.36 Edg/119.0.0.0" version="22.1.0" etag="8tVwDzaDJ9MOR3tF3G-1" type="github">
  <diagram name="ページ1" id="jgmUEl-du9Qmdl0NTIOc">
    <mxGraphModel>
      <root>
        <mxCell id="0" />
        <mxCell id="1" parent="0" />
      </root>
    </mxGraphModel>
  </diagram>
</mxfile>
